<svg width="18" height="20" viewBox="0 0 18 20" fill="none" xmlns="http://www.w3.org/2000/svg">
<path fill-rule="evenodd" clip-rule="evenodd" d="M2.06757 0H15.5825C16.7221 0 17.65 0.927887 17.6601 2.06757V20L15.4816 18.114L14.2612 16.9945L12.9703 15.8043L13.5048 17.65H2.06757C0.927887 17.65 0 16.7221 0 15.5825V2.06757C0 0.927887 0.927887 0 2.06757 0ZM11.0237 12.2542C11.3263 12.6273 11.6894 13.061 11.6894 13.061C13.8011 12.9941 14.6726 11.687 14.7584 11.5583C14.7632 11.5511 14.7655 11.5476 14.7655 11.5482C14.7655 8.33081 13.3132 5.71861 13.3132 5.71861C11.8709 4.63944 10.4892 4.66969 10.4892 4.66969L10.348 4.83106C12.0625 5.34544 12.8593 6.10187 12.8593 6.10187C11.8104 5.53707 10.7816 5.25466 9.8235 5.14372C9.09733 5.06304 8.40141 5.08321 7.78618 5.16389C7.73336 5.16389 7.68821 5.17158 7.63734 5.18024C7.62994 5.1815 7.62241 5.18278 7.61473 5.18407C7.26173 5.22441 6.40444 5.34544 5.32526 5.81947C4.95209 5.98084 4.73021 6.10187 4.73021 6.10187C4.73021 6.10187 5.55724 5.30509 7.37267 4.79072L7.27181 4.66969C7.27181 4.66969 5.90015 4.63944 4.44781 5.71861C4.44781 5.71861 2.99546 8.33081 2.99546 11.5482C2.99546 11.5482 3.84266 13.0005 6.07161 13.0711C6.07161 13.0711 6.44478 12.6273 6.74735 12.2441C5.46647 11.8608 4.98235 11.064 4.98235 11.064C4.98235 11.064 5.08321 11.1346 5.26475 11.2355C5.27098 11.2355 5.27722 11.2394 5.28583 11.2447C5.29116 11.248 5.29739 11.2518 5.30509 11.2557C5.32022 11.2658 5.33535 11.2733 5.35048 11.2809C5.36561 11.2885 5.38074 11.296 5.39587 11.3061C5.64801 11.4473 5.90015 11.5582 6.13212 11.649C6.54564 11.8205 7.03984 11.9718 7.61473 12.0827C8.37116 12.2239 9.2587 12.2743 10.2269 12.0928C10.701 12.002 11.1851 11.8709 11.6894 11.6591C12.0424 11.528 12.4357 11.3364 12.8492 11.064C12.8492 11.064 12.3449 11.881 11.0237 12.2542ZM9.64196 9.49066C9.64196 8.87543 10.0958 8.38123 10.6707 8.38123C11.2355 8.38123 11.6994 8.87543 11.6994 9.49066C11.6994 10.1059 11.2456 10.6001 10.6707 10.6001C10.1059 10.6001 9.64196 10.1059 9.64196 9.49066ZM5.96067 9.49066C5.96067 8.87543 6.41453 8.38123 6.98941 8.38123C7.5643 8.38123 8.02824 8.87543 8.01816 9.49066C8.01816 10.1059 7.5643 10.6001 6.98941 10.6001C6.42461 10.6001 5.96067 10.1059 5.96067 9.49066Z" fill="white"/>
</svg>
